<svg width="69" height="50" fill="none" xmlns="http://www.w3.org/2000/svg"><g clip-path="url(#a)"><g filter="url(#b)"><path d="M8.372 6.066C8.372 2.716 11.006 0 14.255 0c3.25 0 5.883 2.716 5.883 6.066 0 3.35-2.634 6.066-5.883 6.066S8.372 9.416 8.372 6.066Z" fill="url(#c)"/></g><path fill-rule="evenodd" clip-rule="evenodd" d="M7.324 11.17c-.193-.31-.676-.253-.76.106-.167.716-.334 1.475-.51 2.27-.877 3.985-1.958 8.89-4.233 13.879-.202.383-.39.78-.561 1.184a.166.166 0 0 1-.018.035A15.84 15.84 0 0 0 0 34.724C-.053 43.11 6.323 49.95 14.242 50c7.922.055 14.383-6.7 14.437-15.087a15.691 15.691 0 0 0-1.002-5.707l-.01-.032a14.836 14.836 0 0 0-.734-1.65c-2.875-6.649-3.896-11.382-4.647-14.862-.106-.49-.206-.956-.306-1.399-.081-.36-.565-.418-.758-.107-1.465 2.362-4.032 3.928-6.953 3.928-2.916 0-5.478-1.56-6.945-3.915Z" fill="url(#d)"/><g filter="url(#e)"><path d="M22.57 34.776c0 4.765-3.71 8.628-8.287 8.628-4.577 0-8.287-3.863-8.287-8.628 0-4.765 3.71-8.628 8.287-8.628 4.577 0 8.287 3.863 8.287 8.628Z" fill="url(#f)"/></g><path d="M20.138 34.747c0 3.35-2.609 6.066-5.827 6.066-3.217 0-5.826-2.716-5.826-6.066 0-3.35 2.609-6.066 5.826-6.066 3.218 0 5.827 2.716 5.827 6.066Z" fill="url(#g)"/><path fill-rule="evenodd" clip-rule="evenodd" d="M20.195 34.747c0 3.382-2.634 6.125-5.883 6.125-3.25 0-5.883-2.743-5.883-6.125 0-3.383 2.634-6.125 5.883-6.125s5.883 2.742 5.883 6.125Zm-5.883 6.058c3.214 0 5.82-2.712 5.82-6.058 0-3.346-2.606-6.059-5.82-6.059-3.214 0-5.82 2.713-5.82 6.059s2.606 6.058 5.82 6.058Z" fill="#1E5624"/><path d="M11.38 31.911c-.357.527-.32 1.186.081 1.471.402.285 1.014.088 1.371-.438.358-.527.32-1.187-.08-1.472-.401-.284-1.013-.09-1.371.44Z" fill="#fff"/><path d="m55.303 11.71-5.33 12.564h-1.255l-5.33-12.564h1.375l4.608 10.913 4.643-10.913h1.29Zm6.72 12.672c-1.193 0-2.276-.276-3.25-.826a6.106 6.106 0 0 1-2.27-2.297c-.539-.97-.808-2.059-.808-3.267 0-1.209.27-2.298.808-3.267a5.975 5.975 0 0 1 2.27-2.28c.974-.562 2.057-.843 3.25-.843 1.192 0 2.264.275 3.215.826a5.94 5.94 0 0 1 2.27 2.297c.55.97.825 2.058.825 3.267 0 1.208-.275 2.303-.825 3.284a5.975 5.975 0 0 1-2.27 2.28c-.951.55-2.023.826-3.215.826Zm0-1.185c.951 0 1.811-.221 2.58-.664a4.856 4.856 0 0 0 1.804-1.867c.436-.802.654-1.693.654-2.674 0-.982-.218-1.867-.654-2.657a4.695 4.695 0 0 0-1.805-1.866c-.768-.455-1.628-.682-2.58-.682-.95 0-1.816.227-2.596.682a4.81 4.81 0 0 0-1.822 1.866c-.436.79-.654 1.675-.654 2.657 0 .981.218 1.872.654 2.674a4.978 4.978 0 0 0 1.822 1.867c.78.443 1.645.664 2.597.664Z" fill="#E2FB4C"/><path d="M63.808 17.845c0 1.008-.773 1.825-1.725 1.825-.953 0-1.726-.817-1.726-1.826 0-1.008.773-1.825 1.726-1.825.952 0 1.725.817 1.725 1.826Z" fill="url(#h)"/><path fill-rule="evenodd" clip-rule="evenodd" d="M63.921 17.845c0 1.04-.81 1.884-1.81 1.884s-1.81-.844-1.81-1.884c0-1.041.81-1.885 1.81-1.885s1.81.844 1.81 1.884Zm-1.81 1.818c.964 0 1.747-.814 1.747-1.819 0-1.004-.783-1.818-1.747-1.818-.964 0-1.747.814-1.747 1.819 0 1.004.783 1.818 1.747 1.818Z" fill="#1E5624"/><path d="M42.748 21.266h-6.715l-1.446 3.351h-1.325l5.509-12.544h1.257l5.509 12.544h-1.343l-1.446-3.35Zm-.465-1.075-2.892-6.738-2.893 6.738h5.785Z" fill="#E2FB4C"/><path d="M44.736 28.975V41.52h-1.049l-7.739-10.178V41.52h-1.272V28.975h1.049l7.756 10.179V28.975h1.255Zm4.17 1.147v4.928h6.226v1.147h-6.226v5.322h-1.272V28.975h8.255v1.147h-6.983Zm13.329-.118H57.98v-1.146h9.787v1.146h-4.254v11.398h-1.28V30.004Z" fill="#fff"/></g><defs><radialGradient id="c" cx="0" cy="0" r="1" gradientUnits="userSpaceOnUse" gradientTransform="matrix(-13.75569 -1.23928 1.37542 -15.26677 13.867 5.88)"><stop offset=".135" stop-color="#F7EF7C"/><stop offset=".963" stop-color="#A4C967"/><stop offset="1" stop-color="#9BC565"/></radialGradient><radialGradient id="d" cx="0" cy="0" r="1" gradientUnits="userSpaceOnUse" gradientTransform="matrix(16.0596 0 0 23.5414 14.332 33.715)"><stop offset=".281" stop-color="#F7EF7C"/><stop offset=".585" stop-color="#EFEB7A"/><stop offset=".881" stop-color="#BCD46D"/><stop offset=".963" stop-color="#A4C967"/><stop offset="1" stop-color="#9BC565"/></radialGradient><radialGradient id="f" cx="0" cy="0" r="1" gradientUnits="userSpaceOnUse" gradientTransform="matrix(50.42114 -2.94205 3.29795 56.52076 14.83 35.04)"><stop stop-color="#BCD46D"/><stop offset=".963" stop-color="#A4C967"/><stop offset="1" stop-color="#9BC565"/></radialGradient><radialGradient id="g" cx="0" cy="0" r="1" gradientUnits="userSpaceOnUse" gradientTransform="matrix(4.0083 1.77768 -2.37977 5.36591 13.673 33.8)"><stop stop-color="#D47863"/><stop offset=".159" stop-color="#CC7460"/><stop offset=".324" stop-color="#B96C5A"/><stop offset=".492" stop-color="#9E5F50"/><stop offset=".663" stop-color="#7D4F43"/><stop offset=".833" stop-color="#593B32"/><stop offset="1" stop-color="#37241C"/></radialGradient><radialGradient id="h" cx="0" cy="0" r="1" gradientUnits="userSpaceOnUse" gradientTransform="matrix(1.18693 .53502 -.72404 1.60626 61.893 17.56)"><stop stop-color="#9E5F50"/><stop offset=".663" stop-color="#7D4F43"/><stop offset=".833" stop-color="#593B32"/><stop offset="1" stop-color="#37241C"/></radialGradient><filter id="b" x="8.372" y="0" width="11.766" height="16.132" filterUnits="userSpaceOnUse" color-interpolation-filters="sRGB"><feFlood flood-opacity="0" result="BackgroundImageFix"/><feBlend in="SourceGraphic" in2="BackgroundImageFix" result="shape"/><feColorMatrix in="SourceAlpha" values="0 0 0 0 0 0 0 0 0 0 0 0 0 0 0 0 0 0 127 0" result="hardAlpha"/><feOffset dy="4"/><feGaussianBlur stdDeviation="27.5"/><feComposite in2="hardAlpha" operator="arithmetic" k2="-1" k3="1"/><feColorMatrix values="0 0 0 0 0.607843 0 0 0 0 0.772549 0 0 0 0 0.396078 0 0 0 1 0"/><feBlend in2="shape" result="effect1_innerShadow_627_98"/></filter><filter id="e" x="5.996" y="26.148" width="16.574" height="21.256" filterUnits="userSpaceOnUse" color-interpolation-filters="sRGB"><feFlood flood-opacity="0" result="BackgroundImageFix"/><feBlend in="SourceGraphic" in2="BackgroundImageFix" result="shape"/><feColorMatrix in="SourceAlpha" values="0 0 0 0 0 0 0 0 0 0 0 0 0 0 0 0 0 0 127 0" result="hardAlpha"/><feOffset dy="4"/><feGaussianBlur stdDeviation="27.5"/><feComposite in2="hardAlpha" operator="arithmetic" k2="-1" k3="1"/><feColorMatrix values="0 0 0 0 0.607843 0 0 0 0 0.772549 0 0 0 0 0.396078 0 0 0 1 0"/><feBlend in2="shape" result="effect1_innerShadow_627_98"/></filter><clipPath id="a"><path fill="#fff" d="M0 0h68.333v50H0z"/></clipPath></defs></svg>